<svg width="937" height="358" viewBox="0 0 937 358" fill="none" xmlns="http://www.w3.org/2000/svg">
<g clip-path="url(#clip0_30_39)">
<path d="M102.093 357.08C71.1281 357.08 46.2946 348.389 27.5928 331.007C9.19757 313.334 0 287.852 0 254.563V229.817C0 196.234 9.19757 170.751 27.5928 153.371C46.2946 135.695 71.1281 126.857 102.093 126.857H104.853C133.058 126.857 156.052 134.222 173.834 148.952C189.023 161.073 198.376 177.763 201.891 199.023C203.022 205.865 197.208 211.7 189.998 211.7H165.209C158.652 211.7 153.375 206.806 151.831 200.684C149.545 191.625 145.382 184.839 139.343 180.325C131.372 173.845 119.875 170.604 104.853 170.604H102.093C84.3112 170.604 71.1281 175.023 62.5435 183.861C53.959 192.698 49.6669 208.017 49.6669 229.817V254.563C49.6669 276.068 53.959 291.386 62.5435 300.519C71.4348 309.356 84.6179 313.775 102.093 313.775H104.853C119.569 313.775 131.066 310.682 139.343 304.496C145.389 299.763 149.554 292.829 151.838 283.696C153.37 277.571 158.652 272.68 165.209 272.68H189.998C197.208 272.68 203.022 278.515 201.891 285.357C198.376 306.617 189.023 323.307 173.834 335.428C156.052 349.863 133.058 357.08 104.853 357.08H102.093Z" fill="#F9F7F1"/>
<path d="M384.489 312.079C391.441 312.079 397.077 317.712 397.077 324.662V344.595C397.077 351.543 391.441 357.179 384.489 357.179H315.599C295.344 357.179 279.234 351.194 267.265 339.23C255.604 326.956 249.773 311.158 249.773 291.83V83.521C249.773 76.5714 244.138 70.938 237.186 70.938H180.423C173.471 70.938 167.836 65.304 167.836 58.3544V38.4223C167.836 31.4726 173.471 25.8389 180.423 25.8389H288.281C295.233 25.8389 300.868 31.4726 300.868 38.4223V297.352C300.868 302.874 301.789 306.71 303.63 308.857C305.778 311.005 309.921 312.079 316.059 312.079H384.489Z" fill="#F9F7F1"/>
<path d="M559.23 312.078C566.182 312.078 571.817 317.712 571.817 324.661V344.594C571.817 351.542 566.182 357.178 559.23 357.178H503.232C482.976 357.178 466.865 351.193 454.895 339.23C443.235 326.956 437.403 311.157 437.403 291.829V184.763C437.403 177.813 431.767 172.18 424.819 172.18H367.135C360.182 172.18 354.547 166.546 354.547 159.596V139.204C354.547 132.254 360.182 126.62 367.135 126.62H475.913C482.865 126.62 488.5 132.254 488.5 139.204V297.352C488.5 302.874 489.422 306.709 491.261 308.857C493.411 311.004 497.4 312.078 503.232 312.078H559.23Z" fill="#F9F7F1"/>
<path d="M819.189 337.725C824.646 346.093 818.639 357.179 808.645 357.179H781.77C777.427 357.179 773.393 354.942 771.091 351.262L713.958 259.871C709.723 253.097 700.326 251.931 694.567 257.465L674.626 276.611C672.155 278.984 670.758 282.261 670.758 285.687V344.595C670.758 351.543 665.122 357.179 658.173 357.179H632.248C625.299 357.179 619.664 351.543 619.664 344.595V38.4223C619.664 31.4727 625.299 25.8389 632.248 25.8389H658.173C665.122 25.8389 670.758 31.4726 670.758 38.4223V212.787C670.758 214.759 672.357 216.359 674.33 216.359C675.283 216.359 676.203 215.977 676.867 215.299L760.969 130.353C763.332 127.965 766.554 126.621 769.916 126.621H798.503C809.813 126.621 815.384 140.37 807.269 148.238L746.33 207.3C742.008 211.492 741.256 218.159 744.552 223.204L819.189 337.725Z" fill="#F9F7F1"/>
<path d="M417.523 38.3781C417.523 31.4287 423.159 25.7949 430.111 25.7949H475.828C482.777 25.7949 488.413 31.4287 488.413 38.3781V80.86C488.413 87.809 482.777 93.443 475.828 93.443H430.111C423.159 93.443 417.523 87.809 417.523 80.86V38.3781Z" fill="#F9F7F1"/>
<path d="M830.314 92.0804C826.112 87.8456 826.127 80.9948 830.348 76.7786L868.037 39.1307C872.258 34.9145 879.086 34.9296 883.289 39.1645L899.664 55.6674C903.867 59.9022 903.852 66.753 899.631 70.9692L861.941 108.617C857.721 112.833 850.892 112.818 846.69 108.583L830.314 92.0804Z" fill="url(#paint0_linear_30_39)"/>
<path d="M768.784 74.0003C762.828 74.0003 758 69.1559 758 63.1802L758 9.82005C758 3.8443 762.828 -0.999999 768.784 -0.999999L791.995 -1C797.95 -1 802.779 3.84431 802.779 9.82006L802.779 63.1802C802.779 69.156 797.95 74.0003 791.995 74.0003H768.784Z" fill="url(#paint1_linear_30_39)"/>
<path d="M862.248 146.893C862.248 140.917 867.076 136.073 873.032 136.073H926.216C932.172 136.073 937 140.917 937 146.893V170.18C937 176.156 932.172 181 926.216 181H873.032C867.076 181 862.248 176.156 862.248 170.18V146.893Z" fill="url(#paint2_linear_30_39)"/>
</g>
<defs>
<linearGradient id="paint0_linear_30_39" x1="743.621" y1="-37.0669" x2="949.428" y2="252.628" gradientUnits="userSpaceOnUse">
<stop offset="0.10932" stop-color="#F9838E"/>
<stop offset="0.407548" stop-color="#DC1DD9"/>
<stop offset="0.67531" stop-color="#5481E8"/>
</linearGradient>
<linearGradient id="paint1_linear_30_39" x1="743.621" y1="-37.0669" x2="949.428" y2="252.628" gradientUnits="userSpaceOnUse">
<stop offset="0.10932" stop-color="#F9838E"/>
<stop offset="0.407548" stop-color="#DC1DD9"/>
<stop offset="0.67531" stop-color="#5481E8"/>
</linearGradient>
<linearGradient id="paint2_linear_30_39" x1="743.621" y1="-37.0669" x2="949.428" y2="252.628" gradientUnits="userSpaceOnUse">
<stop offset="0.10932" stop-color="#F9838E"/>
<stop offset="0.407548" stop-color="#DC1DD9"/>
<stop offset="0.67531" stop-color="#5481E8"/>
</linearGradient>
<clipPath id="clip0_30_39">
<rect width="937" height="357.751" fill="white"/>
</clipPath>
</defs>
</svg>
